<svg width="72" height="72" viewBox="0 0 72 72" fill="none" xmlns="http://www.w3.org/2000/svg">
<rect width="72" height="72" fill="#FA0000"/>
<path fill-rule="evenodd" clip-rule="evenodd" d="M49.6515 50.6772H48.802V48.439H49.6515C50.2737 48.439 50.7794 48.941 50.7794 49.558C50.7794 50.1752 50.2737 50.6772 49.6515 50.6772V50.6772ZM49.6122 47.6276H48.0028V51.4883H49.6122C50.7156 51.4883 51.6133 50.6222 51.6133 49.5578C51.6133 48.4937 50.7156 47.6276 49.6122 47.6276V47.6276ZM46.6306 54.844C47.4598 54.844 48.2328 55.2831 48.6467 55.9749L49.8414 54.9443C49.1104 53.8651 47.9027 53.2241 46.5878 53.2241C44.4265 53.2241 42.6678 54.9683 42.6678 57.1121C42.6678 59.2556 44.4265 60.9998 46.5878 60.9998C47.9027 60.9998 49.1104 60.3588 49.8414 59.2799L48.6467 58.2493C48.2328 58.9413 47.4595 59.3802 46.6306 59.3802C45.346 59.3802 44.3009 58.3627 44.3009 57.1121C44.3009 55.8617 45.346 54.844 46.6306 54.844V54.844ZM35.3041 55.0083H37.651V60.7469H39.2309V55.0083H41.5247V53.4625H35.3041V55.0083ZM56.469 56.3333H53.0391V53.4625H51.5204V60.7469H53.0391V57.8411H56.469V60.7469H57.9889V53.4625H56.469V56.3333ZM60.6968 59.6627L60.4213 60.4557L60.1463 59.6627H59.8432V60.7467H60.0383V59.9146L60.3239 60.737L60.3273 60.7467H60.5158L60.519 60.737L60.8045 59.9146V60.7467H61V59.6627H60.6968ZM56.2036 50.7597C55.5366 50.7597 54.9942 50.2207 54.9942 49.5579C54.9942 48.8953 55.5366 48.3563 56.2036 48.3563C56.8704 48.3563 57.4128 48.8953 57.4128 49.5579C57.4128 50.2207 56.8704 50.7597 56.2036 50.7597V50.7597ZM56.2035 47.4975C55.0604 47.4975 54.1304 48.4217 54.1304 49.5579C54.1304 50.6939 55.0604 51.6181 56.2035 51.6181C57.3465 51.6181 58.2766 50.6939 58.2766 49.5579C58.2766 48.4217 57.3465 47.4975 56.2035 47.4975V47.4975ZM58.7077 59.8703H59.0442V60.7467H59.2567V59.8703H59.5851V59.6627H58.7077V59.8703ZM37.994 50.7733H35.757V49.8678H37.8255V49.1695H35.757V48.3363H37.994V47.6276L34.9671 47.6288V51.4883L37.994 51.4869V50.7733ZM44.7101 51.4883V47.6276H43.9204V50.1636L42.0057 47.6276H41.2197V51.4883H42.0087V48.9064L43.9419 51.4883H44.7101ZM18.7563 51.4883H19.6224V47.6276H18.7563V51.4883ZM15.3793 56.3222C14.3182 56.1495 13.6328 55.9544 13.6328 55.4643C13.6328 54.8979 14.3958 54.68 15.4199 54.68C16.3717 54.68 17.3265 55.04 17.6669 55.182L18.1889 53.921C17.8192 53.7757 16.646 53.3601 15.345 53.3601C13.7582 53.3601 12.0722 54.1277 12.0722 55.55C12.0722 56.7038 12.8923 57.2928 14.9975 57.652C16.4817 57.9054 17.2991 58.045 17.2761 58.6777C17.2628 59.0265 16.9913 59.6112 15.3183 59.6112C13.9727 59.6112 13.0243 59.1273 12.6952 58.9308L12 60.1754C12.3705 60.3688 13.6135 60.9468 15.2127 60.9468C17.5491 60.9468 18.784 60.1441 18.784 58.6253C18.784 57.745 18.4845 56.8279 15.3793 56.3222V56.3222ZM27.038 58.7474L25.4821 53.4625H24.1789L22.6318 58.7279L21.2194 53.4625H19.6206L21.6986 60.7469H23.4631L24.8325 55.9476L26.1927 60.7469H27.9649L30.0539 53.4625H28.4559L27.038 58.7474ZM23.3472 48.9064L25.28 51.4883H26.0484V47.6276H25.2585V50.1636L23.344 47.6276H22.558V51.4883H23.3472V48.9064ZM31.8785 60.7469H33.5128V53.4625H31.8785V60.7469ZM32.1176 47.6276H28.8207V48.4469H30.0646V51.4883H30.9021V48.4469H32.1176V47.6276ZM13.1202 48.9064L15.0532 51.4883H15.8216V47.6276H15.0317V50.1636L13.1172 47.6276H12.3312V51.4883H13.1202V48.9064ZM24.564 21.2747C24.564 22.8802 25.876 24.1816 27.4944 24.1816C29.113 24.1816 30.4248 22.8802 30.4248 21.2747C30.4248 19.6694 29.113 18.368 27.4944 18.368C25.876 18.368 24.564 19.6694 24.564 21.2747V21.2747ZM32.2317 40.4234H27.7035C26.2397 40.4234 24.8637 39.8581 23.8294 38.8319C22.7943 37.806 22.2247 36.4411 22.2247 34.9887V19.9272C22.2247 18.4747 22.7943 17.1101 23.8286 16.0844C24.8635 15.0579 26.2397 14.4925 27.7035 14.4925H32.2317V40.4234ZM34.516 12H27.7036C23.2898 12 19.7117 15.5491 19.7117 19.927V34.9887C19.7117 39.3669 23.2898 42.9157 27.7036 42.9157H34.516C34.6426 42.9157 34.7447 42.8142 34.7447 42.6891V12.2264C34.7447 12.1015 34.6426 12 34.516 12V12ZM44.0291 25.8778C45.7694 25.8778 47.1801 27.2773 47.1801 29.0036C47.1801 30.7298 45.7694 32.1293 44.0291 32.1293C42.2885 32.1293 40.8776 30.7298 40.8776 29.0036C40.8776 27.2773 42.2885 25.8778 44.0291 25.8778V25.8778ZM38.0912 42.9157H42.8877C47.3013 42.9157 50.8794 39.3669 50.8794 34.9887V19.927C50.8794 15.5491 47.3013 12 42.8877 12H38.0657C37.9535 12 37.8629 12.0901 37.8629 12.2016V42.6891C37.8629 42.8142 37.965 42.9157 38.0912 42.9157V42.9157Z" fill="#FEFEFE"/>
</svg>
